<svg width="60" height="60" viewBox="0 0 60 60" fill="none" xmlns="http://www.w3.org/2000/svg">
<mask id="mask0_3421_6732" style="mask-type:alpha" maskUnits="userSpaceOnUse" x="0" y="0" width="60" height="60">
<rect width="60" height="60" fill="#D9D9D9"/>
</mask>
<g mask="url(#mask0_3421_6732)">
<path d="M15.4961 39.3031C14.3036 39.3031 13.2819 38.8771 12.4311 38.025C11.5798 37.1729 11.1542 36.1485 11.1542 34.9519C11.1542 33.7373 11.5802 32.7085 12.4323 31.8656C13.2844 31.0227 14.3088 30.6013 15.5054 30.6013C16.695 30.6013 17.7136 31.0227 18.5611 31.8656C19.4086 32.7085 19.8323 33.7333 19.8323 34.94C19.8323 36.1467 19.4077 37.1754 18.5586 38.0263C17.7094 38.8775 16.6886 39.3031 15.4961 39.3031ZM44.4861 39.3031C43.2936 39.3031 42.2719 38.8771 41.4211 38.025C40.5702 37.1729 40.1448 36.1485 40.1448 34.9519C40.1448 33.7373 40.5709 32.7085 41.4229 31.8656C42.275 31.0227 43.2992 30.6013 44.4954 30.6013C45.6854 30.6013 46.7042 31.0227 47.5517 31.8656C48.3988 32.7085 48.8223 33.7333 48.8223 34.94C48.8223 36.1467 48.3977 37.1754 47.5486 38.0263C46.6994 38.8775 45.6786 39.3031 44.4861 39.3031ZM30.0367 36.8506C28.4871 36.8506 27.1721 36.3117 26.0917 35.2337C25.0117 34.1554 24.4717 32.8354 24.4717 31.2738C24.4717 29.7004 25.0108 28.3777 26.0892 27.3056C27.1671 26.2331 28.4869 25.6969 30.0486 25.6969C31.5902 25.6969 32.905 26.2331 33.9929 27.3056C35.0813 28.3777 35.6254 29.6965 35.6254 31.2619C35.6254 32.8277 35.0813 34.1506 33.9929 35.2306C32.905 36.3106 31.5863 36.8506 30.0367 36.8506ZM18.5917 51.25C19.1592 48.5833 20.5013 46.3742 22.6179 44.6225C24.7346 42.8708 27.2104 41.995 30.0454 41.995C32.8808 41.995 35.3538 42.8708 37.4642 44.6225C39.575 46.3742 40.914 48.5833 41.4811 51.25H18.5917ZM6.25043 51.25C6.25043 48.6921 7.15356 46.5102 8.95981 44.7044C10.7656 42.8981 12.9475 41.995 15.5054 41.995C16.2179 41.995 16.8888 42.0656 17.5179 42.2069C18.1467 42.3477 18.7546 42.5592 19.3417 42.8412C18.2221 43.9467 17.2892 45.2142 16.5429 46.6437C15.7967 48.0733 15.2819 49.6087 14.9986 51.25H6.25043ZM45.0629 51.25C44.7871 49.5929 44.2767 48.0513 43.5317 46.625C42.7863 45.1987 41.8448 43.9296 40.7073 42.8175C41.2906 42.5512 41.8921 42.3477 42.5117 42.2069C43.1317 42.0656 43.7929 41.995 44.4954 41.995C47.0533 41.995 49.2352 42.8981 51.0411 44.7044C52.8473 46.5102 53.7504 48.6921 53.7504 51.25H45.0629ZM6.0773 29.2306L3.84668 26.2406L30.0486 6.25L40.0242 13.8512V8.75H46.2504V18.6156L56.2504 26.2406L53.9954 29.2306L30.0486 10.9756L6.0773 29.2306Z" fill="#1C1B1F"/>
</g>
</svg>
