<svg width="32" height="32" viewBox="0 0 32 32" fill="none" xmlns="http://www.w3.org/2000/svg">
<mask id="mask0_3421_7003" style="mask-type:alpha" maskUnits="userSpaceOnUse" x="0" y="0" width="32" height="32">
<rect width="32" height="32" fill="#D9D9D9"/>
</mask>
<g mask="url(#mask0_3421_7003)">
<path d="M13.1997 20.668L15.9997 17.868L18.7997 20.668L20.6663 18.8013L17.8663 16.0013L20.6663 13.2013L18.7997 11.3346L15.9997 14.1346L13.1997 11.3346L11.333 13.2013L14.133 16.0013L11.333 18.8013L13.1997 20.668ZM15.9997 29.3346C12.9108 28.5569 10.3608 26.7846 8.34967 24.018C6.33856 21.2513 5.33301 18.1791 5.33301 14.8013V6.66797L15.9997 2.66797L26.6663 6.66797V14.8013C26.6663 18.1791 25.6608 21.2513 23.6497 24.018C21.6386 26.7846 19.0886 28.5569 15.9997 29.3346ZM15.9997 26.5346C18.3108 25.8013 20.2219 24.3346 21.733 22.1346C23.2441 19.9346 23.9997 17.4902 23.9997 14.8013V8.5013L15.9997 5.5013L7.99967 8.5013V14.8013C7.99967 17.4902 8.75523 19.9346 10.2663 22.1346C11.7775 24.3346 13.6886 25.8013 15.9997 26.5346Z" fill="#1C1B1F"/>
</g>
</svg>
