<svg width="24" height="25" viewBox="0 0 24 25" fill="none" xmlns="http://www.w3.org/2000/svg">
<mask id="mask0_3294_1165" style="mask-type:alpha" maskUnits="userSpaceOnUse" x="0" y="0" width="24" height="25">
<rect y="0.5" width="24" height="24" fill="#D9D9D9"/>
</mask>
<g mask="url(#mask0_3294_1165)">
<path d="M10.5353 16.9902L17.5323 9.99323L16.1429 8.60376L10.5353 14.2113L7.70677 11.3827L6.31729 12.7722L10.5353 16.9902ZM11.9248 22.3496C10.5519 22.3496 9.26165 22.0891 8.05414 21.568C6.84662 21.047 5.79624 20.3399 4.90301 19.4466C4.00977 18.5534 3.30263 17.503 2.78158 16.2955C2.26053 15.088 2 13.7977 2 12.4248C2 11.0519 2.26053 9.76165 2.78158 8.55414C3.30263 7.34662 4.00977 6.29624 4.90301 5.40301C5.79624 4.50977 6.84662 3.80263 8.05414 3.28158C9.26165 2.76053 10.5519 2.5 11.9248 2.5C13.2977 2.5 14.588 2.76053 15.7955 3.28158C17.003 3.80263 18.0534 4.50977 18.9466 5.40301C19.8399 6.29624 20.547 7.34662 21.068 8.55414C21.5891 9.76165 21.8496 11.0519 21.8496 12.4248C21.8496 13.7977 21.5891 15.088 21.068 16.2955C20.547 17.503 19.8399 18.5534 18.9466 19.4466C18.0534 20.3399 17.003 21.047 15.7955 21.568C14.588 22.0891 13.2977 22.3496 11.9248 22.3496Z" fill="#10861A"/>
</g>
</svg>
