<svg width="60" height="60" viewBox="0 0 60 60" fill="none" xmlns="http://www.w3.org/2000/svg">
<mask id="mask0_3421_6726" style="mask-type:alpha" maskUnits="userSpaceOnUse" x="0" y="0" width="60" height="60">
<rect width="60" height="60" fill="#D9D9D9"/>
</mask>
<g mask="url(#mask0_3421_6726)">
<path d="M30 55.4806V51.7306H46.7306C46.9552 51.7306 47.1396 51.6585 47.2837 51.5144C47.4279 51.3702 47.5 51.1858 47.5 50.9613V48.75H38.6538V31.0575H47.5V27.5C47.5 22.6667 45.7917 18.5417 42.375 15.125C38.9583 11.7083 34.8333 10 30 10C25.1667 10 21.0417 11.7083 17.625 15.125C14.2083 18.5417 12.5 22.6667 12.5 27.5V31.0575H21.3463V48.75H13.2694C12.0065 48.75 10.9375 48.3125 10.0625 47.4375C9.1875 46.5625 8.75 45.4935 8.75 44.2306V27.5C8.75 24.5771 9.30771 21.8271 10.4231 19.25C11.5385 16.6729 13.061 14.4198 14.9906 12.4906C16.9198 10.561 19.1729 9.03854 21.75 7.92313C24.3271 6.80771 27.0771 6.25 30 6.25C32.9229 6.25 35.6729 6.80771 38.25 7.92313C40.8271 9.03854 43.0802 10.561 45.0094 12.4906C46.939 14.4198 48.4615 16.6729 49.5769 19.25C50.6923 21.8271 51.25 24.5771 51.25 27.5V50.9613C51.25 52.2242 50.8125 53.2931 49.9375 54.1681C49.0625 55.0431 47.9935 55.4806 46.7306 55.4806H30ZM13.2694 45H17.5963V34.8075H12.5V44.2306C12.5 44.4552 12.5721 44.6396 12.7163 44.7838C12.8604 44.9279 13.0448 45 13.2694 45ZM42.4038 45H47.5V34.8075H42.4038V45Z" fill="#1C1B1F"/>
</g>
</svg>
