<svg width="32" height="32" viewBox="0 0 32 32" fill="none" xmlns="http://www.w3.org/2000/svg">
<mask id="mask0_3421_7009" style="mask-type:alpha" maskUnits="userSpaceOnUse" x="0" y="0" width="32" height="32">
<rect width="32" height="32" fill="#D9D9D9"/>
</mask>
<g mask="url(#mask0_3421_7009)">
<path d="M16.0003 29.3346C15.267 29.3346 14.6392 29.0735 14.117 28.5513C13.5948 28.0291 13.3337 27.4013 13.3337 26.668V16.0013C13.3337 15.268 13.5948 14.6402 14.117 14.118C14.6392 13.5957 15.267 13.3346 16.0003 13.3346H26.667C27.4003 13.3346 28.0281 13.5957 28.5503 14.118C29.0725 14.6402 29.3337 15.268 29.3337 16.0013V26.668C29.3337 27.4013 29.0725 28.0291 28.5503 28.5513C28.0281 29.0735 27.4003 29.3346 26.667 29.3346H16.0003ZM16.0003 26.668H26.667V16.0013H16.0003V26.668ZM8.00033 24.0013V10.668C8.00033 9.93464 8.26144 9.30686 8.78366 8.78464C9.30588 8.26241 9.93366 8.0013 10.667 8.0013H24.0003V10.668H10.667V24.0013H8.00033ZM2.66699 18.668V5.33464C2.66699 4.6013 2.9281 3.97352 3.45033 3.4513C3.97255 2.92908 4.60033 2.66797 5.33366 2.66797H18.667V5.33464H5.33366V18.668H2.66699Z" fill="#1C1B1F"/>
</g>
</svg>
