<svg width="20" height="20" viewBox="0 0 20 20" fill="none" xmlns="http://www.w3.org/2000/svg">
<mask id="mask0_3073_2100" style="mask-type:alpha" maskUnits="userSpaceOnUse" x="0" y="0" width="20" height="20">
<rect width="20" height="20" fill="#D9D9D9"/>
</mask>
<g mask="url(#mask0_3073_2100)">
<path d="M4.99967 18.3337C4.54134 18.3337 4.14898 18.1705 3.82259 17.8441C3.4962 17.5177 3.33301 17.1253 3.33301 16.667V6.66699C3.33301 6.20866 3.4962 5.8163 3.82259 5.48991C4.14898 5.16352 4.54134 5.00033 4.99967 5.00033H6.66634C6.66634 4.08366 6.99273 3.29894 7.64551 2.64616C8.29829 1.99338 9.08301 1.66699 9.99967 1.66699C10.9163 1.66699 11.7011 1.99338 12.3538 2.64616C13.0066 3.29894 13.333 4.08366 13.333 5.00033H14.9997C15.458 5.00033 15.8504 5.16352 16.1768 5.48991C16.5031 5.8163 16.6663 6.20866 16.6663 6.66699V16.667C16.6663 17.1253 16.5031 17.5177 16.1768 17.8441C15.8504 18.1705 15.458 18.3337 14.9997 18.3337H4.99967ZM4.99967 16.667H14.9997V6.66699H13.333V8.33366C13.333 8.56977 13.2531 8.76769 13.0934 8.92741C12.9337 9.08713 12.7358 9.16699 12.4997 9.16699C12.2636 9.16699 12.0656 9.08713 11.9059 8.92741C11.7462 8.76769 11.6663 8.56977 11.6663 8.33366V6.66699H8.33301V8.33366C8.33301 8.56977 8.25315 8.76769 8.09342 8.92741C7.9337 9.08713 7.73579 9.16699 7.49967 9.16699C7.26356 9.16699 7.06565 9.08713 6.90592 8.92741C6.7462 8.76769 6.66634 8.56977 6.66634 8.33366V6.66699H4.99967V16.667ZM8.33301 5.00033H11.6663C11.6663 4.54199 11.5031 4.14963 11.1768 3.82324C10.8504 3.49685 10.458 3.33366 9.99967 3.33366C9.54134 3.33366 9.14898 3.49685 8.82259 3.82324C8.4962 4.14963 8.33301 4.54199 8.33301 5.00033Z" fill="white"/>
</g>
</svg>
