<svg width="24" height="23" viewBox="0 0 24 23" fill="none" xmlns="http://www.w3.org/2000/svg">
<path fill-rule="evenodd" clip-rule="evenodd" d="M23.102 13.4227C23.1515 12.99 23.1775 12.5498 23.1775 12.1035C23.1763 5.80513 18.0765 0.698242 11.7841 0.698242C11.7717 0.698242 11.7593 0.698242 11.7469 0.698242L23.102 13.4227ZM21.8908 17.374L11.7469 6.00598L1.64886 17.3207C2.15537 18.3052 2.80059 19.2065 3.55974 19.9975L11.7457 10.824L19.9676 20.0385C20.7292 19.2512 21.3781 18.3548 21.8896 17.374H21.8908ZM0.4575 13.3483C0.412917 12.9391 0.390625 12.5238 0.390625 12.1035C0.390625 5.81753 5.47186 0.71808 11.7457 0.698242L0.4575 13.3483Z" fill="black"/>
<path d="M11.5215 22.0805C12.9339 22.0805 14.0789 20.9342 14.0789 19.5202C14.0789 18.1062 12.9339 16.9599 11.5215 16.9599C10.1092 16.9599 8.9642 18.1062 8.9642 19.5202C8.9642 20.9342 10.1092 22.0805 11.5215 22.0805Z" fill="black"/>
</svg>
